<?xml version="1.0" standalone="no"?><!DOCTYPE svg PUBLIC "-//W3C//DTD SVG 1.1//EN" "http://www.w3.org/Graphics/SVG/1.1/DTD/svg11.dtd"><svg class="icon" width="200px" height="181.88px" viewBox="0 0 1126 1024" version="1.1" xmlns="http://www.w3.org/2000/svg"><path d="M0 0m25.014388 0l1050.604303 0q25.014388 0 25.014388 25.014388l0 100.057553q0 25.014388-25.014388 25.014388l-1050.604303 0q-25.014388 0-25.014388-25.014388l0-100.057553q0-25.014388 25.014388-25.014388Z" fill="#5AC389" /><path d="M25.014388 225.129493m25.014388 0l250.143882 0q25.014388 0 25.014388 25.014389l0 300.172657q0 25.014388-25.014388 25.014389l-250.143882 0q-25.014388 0-25.014388-25.014389l0-300.172657q0-25.014388 25.014388-25.014389Z" fill="#55B97F" /><path d="M400.230211 225.129493m25.014388 0l250.143881 0q25.014388 0 25.014388 25.014389l0 300.172657q0 25.014388-25.014388 25.014389l-250.143881 0q-25.014388 0-25.014388-25.014389l0-300.172657q0-25.014388 25.014388-25.014389Z" fill="#55B97F" /><path d="M775.446033 225.129493m25.014388 0l250.143882 0q25.014388 0 25.014388 25.014389l0 450.258986q0 25.014388-25.014388 25.014389l-250.143882 0q-25.014388 0-25.014388-25.014389l0-450.258986q0-25.014388 25.014388-25.014389Z" fill="#55B97F" /><path d="M25.014388 650.374092m25.014388 0l250.143882 0q25.014388 0 25.014388 25.014388l0 300.172658q0 25.014388-25.014388 25.014388l-250.143882 0q-25.014388 0-25.014388-25.014388l0-300.172658q0-25.014388 25.014388-25.014388Z" fill="#55B97F" /><path d="M400.230211 650.374092m25.014388 0l250.143881 0q25.014388 0 25.014388 25.014388l0 300.172658q0 25.014388-25.014388 25.014388l-250.143881 0q-25.014388 0-25.014388-25.014388l0-300.172658q0-25.014388 25.014388-25.014388Z" fill="#55B97F" /><path d="M775.446033 800.460421m25.014388 0l250.143882 0q25.014388 0 25.014388 25.014388l0 150.086329q0 25.014388-25.014388 25.014388l-250.143882 0q-25.014388 0-25.014388-25.014388l0-150.086329q0-25.014388 25.014388-25.014388Z" fill="#5AC389" /></svg>