<?xml version="1.0" standalone="no"?><!DOCTYPE svg PUBLIC "-//W3C//DTD SVG 1.1//EN" "http://www.w3.org/Graphics/SVG/1.1/DTD/svg11.dtd"><svg class="icon" width="200px" height="200.00px" viewBox="0 0 1024 1024" version="1.1" xmlns="http://www.w3.org/2000/svg"><path d="M181.274665 167.377493l664.814302 0 0 32.763873-664.814302 0 0-32.763873Z" fill="#D7CAFF" /><path d="M844.15779 167.377493a1.931177 1.931177 0 0 1 1.931177 1.931177v28.901519a1.931177 1.931177 0 0 1-1.931177 1.931177H183.205842a1.931177 1.931177 0 0 1-1.931177-1.931177v-28.914746a1.931177 1.931177 0 0 1 1.931177-1.931177H844.15779m0-26.45448H183.205842a28.412111 28.412111 0 0 0-28.345975 28.385657v28.901519a28.412111 28.412111 0 0 0 28.385656 28.385657H844.15779a28.412111 28.412111 0 0 0 28.385656-28.385657v-28.901519a28.412111 28.412111 0 0 0-28.385656-28.385657z" fill="#6244E2" /><path d="M177.901719 639.021184l664.814302 0 0 32.763873-664.814302 0 0-32.763873Z" fill="#D7CAFF" /><path d="M840.784844 638.981503a1.931177 1.931177 0 0 1 1.931177 1.931177v28.901519a1.931177 1.931177 0 0 1-1.931177 1.931177H179.832896a1.931177 1.931177 0 0 1-1.931177-1.931177v-28.861838a1.931177 1.931177 0 0 1 1.931177-1.931177h660.951948m0-26.454479H179.832896A28.412111 28.412111 0 0 0 151.447239 640.952361v28.901519a28.412111 28.412111 0 0 0 28.385657 28.385657h660.951948a28.412111 28.412111 0 0 0 28.345975-28.385657v-28.901519a28.412111 28.412111 0 0 0-28.345975-28.425338z" fill="#6244E2" /><path d="M216.816258 227.085254h590.821122v385.587268H216.816258z" fill="#F2EBFF" /><path d="M807.63738 227.085254v385.587268H216.816258V227.085254h590.821122m26.45448-26.45448H190.361779v438.496228h643.730081V200.630774z" fill="#6244E2" /><path d="M511.995343 227.085254h295.642037v385.587268H511.995343z" fill="#D7CAFF" /><path d="M488.847673 26.45448h46.295339a13.22724 13.22724 0 0 1 13.22724 13.22724v100.725431h-72.749819V39.68172a13.22724 13.22724 0 0 1 13.22724-13.22724z" fill="#F2EBFF" /><path d="M535.143012 26.45448a13.22724 13.22724 0 0 1 13.22724 13.22724v100.725431h-72.749819V39.68172a13.22724 13.22724 0 0 1 13.22724-13.22724h46.295339m0-26.45448h-46.295339a39.68172 39.68172 0 0 0-39.68172 39.68172v127.179911h125.658779V39.68172a39.68172 39.68172 0 0 0-39.68172-39.68172z" fill="#6244E2" /><path d="M475.620433 698.398264h72.749819v285.906789a13.22724 13.22724 0 0 1-13.22724 13.22724h-46.295339a13.22724 13.22724 0 0 1-13.22724-13.22724V698.398264z" fill="#F2EBFF" /><path d="M548.370252 698.398264v285.920016a13.22724 13.22724 0 0 1-13.22724 13.22724h-46.295339a13.22724 13.22724 0 0 1-13.22724-13.22724V698.398264h72.749819m26.45448-26.45448h-125.658779v312.374496a39.68172 39.68172 0 0 0 39.68172 39.68172h46.295339a39.68172 39.68172 0 0 0 39.68172-39.68172V671.943784z" fill="#6244E2" /><path d="M271.748985 997.54552H213.707857a6.61362 6.61362 0 0 1-5.952258-9.510385l140.870104-289.676553h72.749819L277.701243 993.815439a6.61362 6.61362 0 0 1-5.952258 3.730081z" fill="#F2EBFF" /><path d="M421.38875 698.398264L277.701243 993.815439a6.61362 6.61362 0 0 1-5.952258 3.716854H213.707857a6.61362 6.61362 0 0 1-5.952258-9.510385l140.870104-289.676553h72.749819m42.327168-26.45448h-131.597809l-7.2353 14.880645L183.959794 976.4613a33.0681 33.0681 0 0 0 29.734836 47.525473h58.041128a33.266508 33.266508 0 0 0 29.748062-18.610727l143.700734-295.403947 18.518136-38.028315z" fill="#6244E2" /><path d="M753.53797 997.54552h58.041128a6.61362 6.61362 0 0 0 5.952258-9.510385l-140.870104-289.676553h-72.74982L747.598939 993.815439a6.61362 6.61362 0 0 0 5.939031 3.730081z" fill="#D7CAFF" /><path d="M676.661252 698.398264l140.870104 289.676553a6.61362 6.61362 0 0 1-5.952258 9.510385h-58.041128a6.61362 6.61362 0 0 1-5.952258-3.716854L603.911432 698.398264h72.74982m16.547277-26.45448H561.623947l18.518135 38.028315 143.661052 295.403947a33.266508 33.266508 0 0 0 29.734836 18.610727h58.041128a33.0681 33.0681 0 0 0 29.774517-47.525473l-140.870105-289.676553-7.274981-14.840963z" fill="#6244E2" /><path d="M512.220206 698.398264v299.147256h22.922806a13.22724 13.22724 0 0 0 13.22724-13.22724V698.398264zM512.220206 140.420378V26.45448h22.922806a13.22724 13.22724 0 0 1 13.22724 13.22724v100.725431z" fill="#D7CAFF" /><path d="M844.15779 167.377493H511.995343v32.763873H844.15779a1.931177 1.931177 0 0 0 1.931177-1.931177v-28.914746a1.931177 1.931177 0 0 0-1.931177-1.91795zM844.15779 638.981503H511.995343v32.803554H844.15779a1.931177 1.931177 0 0 0 1.931177-1.931177v-28.901519a1.931177 1.931177 0 0 0-1.931177-1.970858z" fill="#AF9CFF" /></svg>