<?xml version="1.0" standalone="no"?><!DOCTYPE svg PUBLIC "-//W3C//DTD SVG 1.1//EN" "http://www.w3.org/Graphics/SVG/1.1/DTD/svg11.dtd"><svg class="icon" width="200px" height="200.00px" viewBox="0 0 1024 1024" version="1.1" xmlns="http://www.w3.org/2000/svg"><path fill="#bfbfbf" d="M512 46.545c-51.2 0-93.09 41.891-93.09 93.091s41.89 93.091 93.09 93.091 93.09-41.89 93.09-93.09S563.2 46.544 512 46.544z m0 372.364c-51.2 0-93.09 41.891-93.09 93.091s41.89 93.09 93.09 93.09 93.09-41.89 93.09-93.09-41.89-93.09-93.09-93.09z m0 372.364c-51.2 0-93.09 41.89-93.09 93.09s41.89 93.092 93.09 93.092 93.09-41.891 93.09-93.091-41.89-93.091-93.09-93.091z"  /></svg>