<?xml version="1.0" standalone="no"?><!DOCTYPE svg PUBLIC "-//W3C//DTD SVG 1.1//EN" "http://www.w3.org/Graphics/SVG/1.1/DTD/svg11.dtd"><svg class="icon" width="200px" height="200.00px" viewBox="0 0 1024 1024" version="1.1" xmlns="http://www.w3.org/2000/svg"><path fill="#1afa29" d="M741.86752 161.49504h-471.04c-50.82112 0-92.16 41.33888-92.16 92.16v82.40128h81.92v-82.40128a10.24 10.24 0 0 1 10.24-10.24h471.04a10.24 10.24 0 0 1 10.24 10.24v552.96a10.24 10.24 0 0 1-10.24 10.24h-471.04a10.24 10.24 0 0 1-10.24-10.24v-64.8192h-81.92v64.8192c0 50.82112 41.33888 92.16 92.16 92.16h471.04c50.81088 0 92.16-41.33888 92.16-92.16v-552.96c0-50.82112-41.34912-92.16-92.16-92.16zM436.4288 660.46976l57.91744 57.91744L682.5984 530.1248 494.34624 341.88288l-57.92768 57.91744 89.37472 89.36448h-347.136v81.92h347.136z" /></svg>