<?xml version="1.0" standalone="no"?><!DOCTYPE svg PUBLIC "-//W3C//DTD SVG 1.1//EN" "http://www.w3.org/Graphics/SVG/1.1/DTD/svg11.dtd"><svg t="1652324375037" class="icon" viewBox="0 0 1024 1024" version="1.1" xmlns="http://www.w3.org/2000/svg" p-id="5512" xmlns:xlink="http://www.w3.org/1999/xlink" width="200" height="200"><defs><style type="text/css">@font-face { font-family: feedback-iconfont; src: url("//at.alicdn.com/t/font_1031158_u69w8yhxdu.woff2?t=1630033759944") format("woff2"), url("//at.alicdn.com/t/font_1031158_u69w8yhxdu.woff?t=1630033759944") format("woff"), url("//at.alicdn.com/t/font_1031158_u69w8yhxdu.ttf?t=1630033759944") format("truetype"); }
</style></defs><path d="M867.1 141.17H156.08c-17.67 0-32 14.33-32 32s14.33 32 32 32H867.1c17.67 0 32-14.33 32-32s-14.33-32-32-32zM867.92 367.52H403.2c-17.67 0-32 14.33-32 32s14.33 32 32 32h464.73c17.67 0 32-14.33 32-32s-14.33-32-32.01-32zM867.92 573.87H403.2c-17.67 0-32 14.33-32 32s14.33 32 32 32h464.73c17.67 0 32-14.33 32-32s-14.33-32-32.01-32zM867.92 800.22H156.9c-17.67 0-32 14.33-32 32s14.33 32 32 32h711.02c17.67 0 32-14.33 32-32 0-17.68-14.32-32-32-32zM312.01 367.52v270.35L137.47 489.71z" p-id="5513"></path></svg>