<?xml version="1.0" standalone="no"?><!DOCTYPE svg PUBLIC "-//W3C//DTD SVG 1.1//EN" "http://www.w3.org/Graphics/SVG/1.1/DTD/svg11.dtd"><svg t="1652202210145" class="icon" viewBox="0 0 1024 1024" version="1.1" xmlns="http://www.w3.org/2000/svg" p-id="1897" xmlns:xlink="http://www.w3.org/1999/xlink" width="200" height="200"><defs><style type="text/css"></style></defs><path d="M691.2 619.52c12.288-12.288 12.288-31.744 0-43.008L533.504 417.792C528.384 412.672 520.192 409.6 512 409.6s-16.384 3.072-21.504 9.216L332.8 575.488c-6.144 6.144-9.216 14.336-9.216 21.504s3.072 15.36 9.216 21.504c12.288 12.288 31.744 12.288 43.008 0L481.28 514.048l0 351.232c0 17.408 13.312 30.72 30.72 30.72 17.408 0 30.72-13.312 30.72-30.72L542.72 514.048l105.472 105.472C659.456 630.784 678.912 630.784 691.2 619.52z" p-id="1898" fill="#515151"></path><path d="M829.44 315.392 194.56 315.392c-17.408 0-30.72-13.312-30.72-30.72s13.312-30.72 30.72-30.72l634.88 0c17.408 0 30.72 13.312 30.72 30.72S846.848 315.392 829.44 315.392z" p-id="1899" fill="#515151"></path></svg>