<?xml version="1.0" standalone="no"?><!DOCTYPE svg PUBLIC "-//W3C//DTD SVG 1.1//EN" "http://www.w3.org/Graphics/SVG/1.1/DTD/svg11.dtd"><svg t="1652078366271" class="icon" viewBox="0 0 1024 1024" version="1.1" xmlns="http://www.w3.org/2000/svg" p-id="12974" xmlns:xlink="http://www.w3.org/1999/xlink" width="200" height="200"><defs><style type="text/css"></style></defs><path d="M681.847467 120.4224a142.9504 142.9504 0 0 0-100.693334 40.686933 135.168 135.168 0 0 0 0 195.3792 145.2032 145.2032 0 0 0 201.181867 0 135.236267 135.236267 0 0 0 0-195.3792 142.813867 142.813867 0 0 0-100.420267-40.482133l-0.068266-0.2048z m-362.496 58.641067c-37.546667-0.2048-73.728 14.336-100.625067 40.5504a135.441067 135.441067 0 0 0-3.8912 191.488l3.8912 3.8912a145.408 145.408 0 0 0 201.250133 0 135.236267 135.236267 0 0 0 0-195.3792 143.1552 143.1552 0 0 0-100.5568-40.277334l-0.068266-0.273066z m201.181866 225.28a218.589867 218.589867 0 0 1-98.304 102.4c17.885867 7.850667 34.816 17.749333 50.3808 29.696A256 256 0 0 1 578.901333 447.829333a219.613867 219.613867 0 0 1-58.368-43.485866z m161.3824 97.621333a173.2608 173.2608 0 0 0-153.941333 92.091733c27.306667 39.458133 41.847467 86.2208 41.847467 134.212267v137.352533h263.168a21.162667 21.162667 0 0 0 21.435733-20.8896V669.559467a163.771733 163.771733 0 0 0-50.722133-118.306134 173.738667 173.738667 0 0 0-121.787734-49.288533z m-362.496 58.709333a173.533867 173.533867 0 0 0-121.856 49.152 163.976533 163.976533 0 0 0-50.653866 118.3744v175.104a21.162667 21.162667 0 0 0 21.435733 20.821334h302.08a21.777067 21.777067 0 0 0 15.086933-6.144 20.0704 20.0704 0 0 0 6.3488-14.677334v-174.967466c0-43.895467-17.6128-86.016-48.878933-116.736v-0.341334l-0.887467-0.887466-0.887466-0.477867a173.397333 173.397333 0 0 0-121.787734-49.220267z m151.278934 439.296H168.5504a98.0992 98.0992 0 0 1-99.396267-96.529066v-175.104c0.068267-64.853333 26.624-126.976 73.5232-171.758934a248.2176 248.2176 0 0 1 73.9328-49.902933 220.16 220.16 0 0 1-79.189333-69.154133 208.554667 208.554667 0 0 1-38.024533-119.944534A217.224533 217.224533 0 0 1 319.488 103.765333a220.910933 220.910933 0 0 1 161.245867 68.266667 215.108267 215.108267 0 0 1 73.864533-87.6544A223.163733 223.163733 0 0 1 681.915733 45.056a217.2928 217.2928 0 0 1 220.091734 213.8112 208.213333 208.213333 0 0 1-38.024534 120.149333 218.589867 218.589867 0 0 1-79.189333 68.8128c27.4432 12.014933 52.4288 28.945067 73.864533 49.834667a239.4112 239.4112 0 0 1 73.9328 171.758933v175.172267a98.167467 98.167467 0 0 1-99.396266 96.597333H562.039467a99.601067 99.601067 0 0 1-91.3408 58.709334z" p-id="12975" fill="#8a8a8a"></path></svg>