<?xml version="1.0" standalone="no"?><!DOCTYPE svg PUBLIC "-//W3C//DTD SVG 1.1//EN" "http://www.w3.org/Graphics/SVG/1.1/DTD/svg11.dtd"><svg t="1652086876208" class="icon" viewBox="0 0 1024 1024" version="1.1" xmlns="http://www.w3.org/2000/svg" p-id="19433" xmlns:xlink="http://www.w3.org/1999/xlink" width="200" height="200"><defs><style type="text/css"></style></defs><path d="M537 929H120.9c-14.1 0-25.5-11.4-25.5-25.5V475.7c0-0.8 0-1.6 0.1-2.3 9.5-103 57-198.5 133.9-268.8C306.7 133.9 406.9 95 511.6 95c229.9 0 417 187.1 417 417 0 217.1-167.6 398.2-383 415.5-2.7 1-5.6 1.5-8.6 1.5z m-390.6-50.9h383.3c1.6-0.4 3.3-0.7 5-0.8 192.3-12 343-172.4 343-365.3 0-201.9-164.2-366.1-366.1-366.1-91.9 0-179.9 34.2-247.8 96.2-67.2 61.5-108.9 144.9-117.4 234.8v401.2z" p-id="19434" fill="#8a8a8a"></path><path d="M318.8 455c-31.5 0-57 25.5-57 57s25.5 57 57 57 57-25.5 57-57c-0.1-31.5-25.6-57-57-57z" p-id="19435" fill="#8a8a8a"></path><path d="M507.4 512m-57 0a57 57 0 1 0 114 0 57 57 0 1 0-114 0Z" p-id="19436" fill="#8a8a8a"></path><path d="M696.1 512m-57 0a57 57 0 1 0 114 0 57 57 0 1 0-114 0Z" p-id="19437" fill="#8a8a8a"></path></svg>